<?xml version="1.0" encoding="UTF-8"?>
<svg id="Ebene_1" data-name="Ebene 1" xmlns="http://www.w3.org/2000/svg" viewBox="0 0 440.51 136.59">
  <defs>
    <style>
      .cls-1 {
        fill: #fff;
        stroke-width: 0px;
      }
    </style>
  </defs>
  <path class="cls-1" d="m420.19,80.38c1.61.78,2.99,1.71,4.38,2.65,5.43,3.65,8.58,8.72,9.41,15.18,1.2,9.38-1.55,17.39-8.72,23.66-3.05,2.66-6.86,4.04-10.66,5.26-6.61,2.13-13.38,2.73-20.32,2.12-6.31-.56-12.4-2.18-18.61-3.22-5.66-.95-11.33-1.83-16.91-3.18-4.64-1.12-9.28-2.28-13.91-3.45-1.42-.36-2.31-1.29-2.85-2.66-.95-2.39-1.02-4.82-.58-7.3,1.44-8.01,3.32-15.92,5.47-23.77,4.36-15.93,7.6-32.12,11.11-48.25,1.14-5.23,1.48-10.59,2.83-15.77.16-.62.3-1.25.52-1.84,1.21-3.2,3.46-4.49,6.78-3.77,4.59,1,9.16,2.08,13.72,3.19,8.97,2.18,18.04,3.98,26.86,6.72,8.35,2.59,16.15,6.34,23.1,11.77,8.73,6.83,12.28,22.33,4.01,32.76-3.69,4.66-8.64,7.48-14.29,9.14-.44.13-.98.06-1.35.75Zm-46.1,21.7c3.1.89,6.05,1.79,9.02,2.59,2.24.61,4.55.85,6.86.82,2.73-.03,5.38-.54,7.83-1.83,1.15-.61,2.2-1.38,2.66-2.64.91-2.47,1.04-4.97,0-7.46-1.48-3.53-4.38-5.43-7.82-6.51-4.32-1.36-8.71-2.49-13.07-3.72-.17-.05-.3,0-.46.35-1.32,6.04-3.11,12.13-5.02,18.4Zm7.96-39.86c1.69.36,3.23.72,4.79,1,3.44.62,6.83,1.58,10.35,1.73,3.78.16,7.31-.31,10-3.42,2.17-2.5,2.6-5.15,1.26-8.19-1.56-3.55-4.44-5.54-7.93-6.78-4.13-1.47-8.48-2.14-12.71-3.24-.92-.24-1.31.12-1.48.99-1.14,5.95-2.87,11.76-4.29,17.91Z"/>
  <path class="cls-1" d="m0,130.17c.43-4.45.84-8.9,1.3-13.35.71-6.91,1.4-13.82,2.21-20.72.79-6.66,1.72-13.3,2.6-19.95.93-7.05,1.6-14.12,2.14-21.21.48-6.37,1.21-12.72,2.45-18.99.46-2.34,1.78-4,4.18-4.76,3.2-1.01,6.48-1.66,9.77-2.24,4.71-.83,9.33-2.05,13.94-3.28,1.08-.29,2.19-.43,3.25-.75,4.36-1.32,7.28.46,9.72,4.12,1.02,1.53,2.03,3.06,2.94,4.65,5.37,9.43,11.19,18.6,16.91,27.82,6.02,9.7,11.86,19.49,17.5,29.41,2.84,4.99,5.78,9.94,9.13,14.62.83,1.16,1.65,2.34,1.95,3.8.55,2.69-.15,4.09-2.81,4.92-4.71,1.48-9.47,2.79-14.16,4.31-2.89.93-5.79,1.68-8.82,2.06-1.79.22-3.11-.29-4.33-1.44-1.06-1-1.72-2.29-2.43-3.54-2.01-3.53-4.05-7.06-5.99-10.63-.58-1.07-1.17-1.26-2.27-.86-8.23,3.01-16.72,5.18-25.11,7.69-2.02.6-2.07.62-2.14,2.78-.12,3.67-.13,7.34-.6,11-.47,3.65-1.24,4.57-4.86,5.53-5.77,1.53-11.53,3.09-17.31,4.58-1.46.38-2.96.69-4.46.83-3.36.31-4.92-1.45-4.63-4.22.07-.71.01-1.44.01-2.16-.03,0-.06,0-.09-.01ZM35.04,55.78c-.38,11.36-.97,22.65-1.94,34.25,6.08-1.81,11.83-3.52,17.85-5.32-5.55-9.67-10.95-19.15-15.91-28.93Z"/>
  <path class="cls-1" d="m311.06,108.94c-5.32-.45-10.83-.67-16.27-1.55-3.62-.58-6.35-2.5-7.35-6.3-1.07-4.09-2.23-8.16-3.2-12.27-.28-1.19-.77-1.46-1.9-1.56-5.08-.48-10.14-1.16-15.22-1.62-3.74-.33-7.5-.4-11.24-.64-.88-.06-1.28.2-1.55,1.04-1.43,4.48-3.31,8.8-5.11,13.14-1.03,2.49-1.19,2.72-3.83,2.66-3.27-.07-6.55-.07-9.81-.49-1.57-.2-3.19-.11-4.79-.09-2.17.04-4.31-.19-6.37-.87-2.43-.8-3.59-2.75-2.89-5.21.7-2.45,1.58-4.85,2.44-7.25,3.93-11.05,8.66-21.77,13.42-32.49,6.47-14.57,12.05-29.51,17.44-44.52.62-1.73,1.29-3.44,2.32-4.97,1.7-2.53,3.84-3.77,7.09-3.23,4.4.73,8.87,1.05,13.31,1.58,3.72.44,7.44.95,11.16,1.39,2.05.25,3.56,1.28,4.65,3,1.3,2.04,2.08,4.3,2.72,6.61,2.23,8,3.88,16.13,5.5,24.27,2.97,14.95,6.61,29.75,10.07,44.59,1.29,5.52,3.03,10.9,4.45,16.38.34,1.32.59,2.64.66,4,.14,2.88-1.15,4.25-4.09,4.36-.48.02-.96,0-1.61,0Zm-37.3-71.38c-3.48,9.18-7.65,17.98-11.43,27.22,5.72.53,11.23,1.04,16.9,1.56-1.86-9.79-3.66-19.29-5.47-28.78Z"/>
  <path class="cls-1" d="m162.43.02c6.93-.21,13.33,1.73,19.64,4.05,3.97,1.46,7.88,3.04,11.37,5.51,1.31.93,2.51,1.96,3.55,3.2,1.32,1.58,1.54,3.28.74,5.14-.16.37-.3.75-.53,1.07-3.04,4.3-5.84,8.78-9.58,12.56-2.43,2.45-5.1,3.05-8.24,1.54-4.18-2.01-8.52-3.57-13.08-4.48-6.39-1.28-11.79.28-16.14,5.35-8.83,10.29-10.27,23.91-3.52,35.65,3.71,6.46,9.56,9.81,16.84,10.28,5.32.34,10.45-.89,15.07-3.78,1.55-.97,3.15-1.88,4.72-2.82,1.25-.75,2.53-1.32,4.04-1.27,1.63.05,2.95.63,3.9,1.97.6.85,1.26,1.67,1.73,2.58,2.19,4.19,5.07,7.92,7.74,11.79,1.09,1.58,1.09,2.87-.08,4.41-1.02,1.33-2.07,2.64-3.38,3.72-9.35,7.63-20.05,12.21-32.04,13.13-8.39.65-16.51-1.07-23.97-5.28-5.03-2.84-9.69-6.19-14.13-9.85-6.15-5.06-9.91-11.83-13.16-18.91-3.13-6.82-4.15-14.02-3.55-21.5.39-4.94.81-9.87,2.02-14.69,3.6-14.32,11.5-25.51,24.41-32.88,5.81-3.32,12.24-4.94,18.81-5.98,2.29-.36,4.6-.59,6.82-.5Z"/>
  <path class="cls-1" d="m99.89,104.16c.01-6.32,3.89-10.98,8.77-12.02,1.99-.42,3.95-.42,5.89.21,5.34,1.73,7.98,7.16,6.05,12.45-2.45,6.73-11.05,9.55-16.8,5.49-2.59-1.83-3.88-4.36-3.91-6.13Z"/>
  <path class="cls-1" d="m320.53,104.05c0-3.19.82-5.73,2.7-7.84,3.01-3.38,7.54-3.5,10.77-.33,3.84,3.78,4.24,10.7.86,14.9-3.26,4.05-8.68,4.05-11.92,0-1.65-2.07-2.39-4.46-2.4-6.72Z"/>
  <path class="cls-1" d="m203.03,91.7c.1-2,.68-4.43,2.45-6.46,3.66-4.18,9.87-3.69,12.82,1.01,2.47,3.94,1.84,9.52-1.43,12.82-3.74,3.76-9.46,3.16-12.29-1.32-1.04-1.65-1.58-3.47-1.54-6.05Z"/>
</svg>
